<svg width="257" height="53" viewBox="0 0 257 53" fill="none" xmlns="http://www.w3.org/2000/svg">
    <path
        d="M49.6005 42V10.0343H70.0786V14.8884H55.3912V23.5666H68.6738V28.4208H55.3912V42H49.6005ZM75.1044 42V18.0257H80.7546V42H75.1044ZM77.9451 14.6231C77.0503 14.6231 76.2802 14.3265 75.6351 13.7334C74.99 13.1299 74.6674 12.4067 74.6674 11.5639C74.6674 10.7106 74.99 9.98743 75.6351 9.39431C76.2802 8.79079 77.0503 8.48903 77.9451 8.48903C78.8504 8.48903 79.6204 8.79079 80.2552 9.39431C80.9003 9.98743 81.2229 10.7106 81.2229 11.5639C81.2229 12.4067 80.9003 13.1299 80.2552 13.7334C79.6204 14.3265 78.8504 14.6231 77.9451 14.6231ZM86.2526 42V38.4101L98.6144 22.9111V22.7082H86.6584V18.0257H105.529V21.8809L93.7602 37.1146V37.3175H105.935V42H86.2526ZM111.245 42V18.0257H116.896V42H111.245ZM114.086 14.6231C113.191 14.6231 112.421 14.3265 111.776 13.7334C111.131 13.1299 110.808 12.4067 110.808 11.5639C110.808 10.7106 111.131 9.98743 111.776 9.39431C112.421 8.79079 113.191 8.48903 114.086 8.48903C114.991 8.48903 115.761 8.79079 116.396 9.39431C117.041 9.98743 117.364 10.7106 117.364 11.5639C117.364 12.4067 117.041 13.1299 116.396 13.7334C115.761 14.3265 114.991 14.6231 114.086 14.6231Z"
        fill="black" />
    <path
        d="M150.317 20.8196H144.479C144.313 19.8623 144.006 19.0142 143.558 18.2754C143.111 17.5262 142.554 16.8915 141.888 16.3712C141.222 15.8509 140.463 15.4607 139.61 15.2006C138.767 14.93 137.856 14.7948 136.878 14.7948C135.14 14.7948 133.6 15.2318 132.258 16.1059C130.916 16.9695 129.865 18.239 129.105 19.9143C128.346 21.5792 127.966 23.6135 127.966 26.0171C127.966 28.4624 128.346 30.5227 129.105 32.198C129.875 33.8629 130.926 35.122 132.258 35.9752C133.6 36.8181 135.135 37.2395 136.862 37.2395C137.82 37.2395 138.715 37.1146 139.547 36.8649C140.39 36.6047 141.144 36.2249 141.81 35.7255C142.487 35.226 143.054 34.6121 143.512 33.8837C143.98 33.1553 144.302 32.3229 144.479 31.3864L150.317 31.4176C150.098 32.9368 149.625 34.3624 148.896 35.6943C148.178 37.0262 147.237 38.202 146.071 39.2217C144.906 40.2311 143.543 41.0219 141.982 41.5942C140.421 42.1561 138.689 42.437 136.784 42.437C133.975 42.437 131.467 41.7867 129.261 40.486C127.055 39.1853 125.318 37.3071 124.048 34.8514C122.779 32.3957 122.144 29.4509 122.144 26.0171C122.144 22.5729 122.784 19.6281 124.064 17.1828C125.344 14.7271 127.086 12.8489 129.292 11.5483C131.498 10.2476 133.996 9.59722 136.784 9.59722C138.564 9.59722 140.218 9.84695 141.748 10.3464C143.277 10.8459 144.641 11.5795 145.837 12.5472C147.034 13.5045 148.017 14.6803 148.787 16.0747C149.568 17.4586 150.077 19.0402 150.317 20.8196ZM161.02 27.9526V42H155.37V10.0343H160.895V22.0994H161.176C161.738 20.7467 162.607 19.6802 163.783 18.8998C164.969 18.1089 166.478 17.7135 168.309 17.7135C169.974 17.7135 171.426 18.0621 172.664 18.7593C173.902 19.4564 174.86 20.4762 175.536 21.8185C176.223 23.1608 176.566 24.7997 176.566 26.7351V42H170.916V27.6092C170.916 25.9963 170.5 24.7425 169.667 23.8476C168.845 22.9423 167.69 22.4897 166.202 22.4897C165.203 22.4897 164.308 22.7082 163.517 23.1452C162.737 23.5718 162.123 24.191 161.676 25.0026C161.239 25.8142 161.02 26.7975 161.02 27.9526ZM192.939 42.4682C190.535 42.4682 188.46 41.9688 186.711 40.9699C184.974 39.9605 183.637 38.535 182.7 36.6932C181.764 34.841 181.295 32.661 181.295 30.1533C181.295 27.6872 181.764 25.5229 182.7 23.6603C183.647 21.7873 184.968 20.3305 186.665 19.29C188.361 18.239 190.353 17.7135 192.643 17.7135C194.12 17.7135 195.514 17.9529 196.826 18.4315C198.147 18.8998 199.312 19.6281 200.322 20.6167C201.342 21.6052 202.143 22.8643 202.725 24.3939C203.308 25.9131 203.6 27.7236 203.6 29.8255V31.5581H183.949V27.7496H198.183C198.173 26.6675 197.939 25.705 197.481 24.8621C197.023 24.0089 196.383 23.3377 195.561 22.8486C194.75 22.3596 193.803 22.1151 192.721 22.1151C191.566 22.1151 190.551 22.396 189.677 22.9579C188.803 23.5094 188.121 24.2378 187.632 25.1431C187.154 26.0379 186.909 27.0213 186.899 28.093V31.4176C186.899 32.8119 187.154 34.0086 187.663 35.0075C188.173 35.996 188.886 36.7556 189.802 37.2863C190.718 37.8066 191.789 38.0667 193.017 38.0667C193.839 38.0667 194.583 37.9523 195.249 37.7233C195.915 37.484 196.493 37.1354 196.982 36.6776C197.471 36.2197 197.84 35.6526 198.09 34.9763L203.365 35.5694C203.032 36.9637 202.398 38.1812 201.461 39.2217C200.535 40.2519 199.349 41.0531 197.903 41.6254C196.456 42.1873 194.802 42.4682 192.939 42.4682ZM208.38 42V18.0257H213.78V22.0994H214.061C214.56 20.7259 215.388 19.6542 216.543 18.8841C217.698 18.1037 219.076 17.7135 220.679 17.7135C222.302 17.7135 223.67 18.1089 224.784 18.8998C225.908 19.6802 226.698 20.7467 227.156 22.0994H227.406C227.937 20.7675 228.832 19.7062 230.091 18.9154C231.36 18.1141 232.864 17.7135 234.601 17.7135C236.807 17.7135 238.608 18.4107 240.002 19.805C241.396 21.1994 242.093 23.2337 242.093 25.9079V42H236.428V26.7819C236.428 25.2939 236.032 24.2066 235.241 23.5198C234.451 22.8226 233.483 22.474 232.338 22.474C230.975 22.474 229.909 22.9007 229.139 23.7539C228.379 24.5968 227.999 25.6946 227.999 27.0473V42H222.458V26.5478C222.458 25.3096 222.084 24.321 221.334 23.5822C220.596 22.8434 219.628 22.474 218.431 22.474C217.62 22.474 216.881 22.6822 216.215 23.0984C215.549 23.5042 215.018 24.0817 214.623 24.8309C214.227 25.5697 214.03 26.4333 214.03 27.4219V42H208.38ZM247.826 42V18.0257H253.476V42H247.826ZM250.666 14.6231C249.771 14.6231 249.001 14.3265 248.356 13.7334C247.711 13.1299 247.389 12.4067 247.389 11.5639C247.389 10.7106 247.711 9.98743 248.356 9.39431C249.001 8.79079 249.771 8.48903 250.666 8.48903C251.572 8.48903 252.342 8.79079 252.976 9.39431C253.621 9.98743 253.944 10.7106 253.944 11.5639C253.944 12.4067 253.621 13.1299 252.976 13.7334C252.342 14.3265 251.572 14.6231 250.666 14.6231Z"
        fill="#5800FF" />
    <path
        d="M19.7105 29.8651C20.6699 29.8651 21.4476 29.0874 21.4476 28.128C21.4476 27.1686 20.6699 26.3909 19.7105 26.3909C18.7511 26.3909 17.9734 27.1686 17.9734 28.128C17.9734 29.0874 18.7511 29.8651 19.7105 29.8651Z"
        stroke="#5800FF" stroke-width="3.47421" stroke-linecap="round" stroke-linejoin="round" />
    <path
        d="M33.1979 41.5846C36.8991 37.8232 33.2342 27.9472 25.0335 19.535C16.7966 11.1598 7.12631 7.41694 3.44327 11.1969C-0.257923 14.9583 3.40698 24.8343 11.6077 33.2465C19.8446 41.6217 29.5149 45.3646 33.1979 41.5846Z"
        stroke="black" stroke-width="3.47421" stroke-linecap="round" stroke-linejoin="round" />
    <path
        d="M27.117 34.5936C35.3177 24.9546 38.9826 13.6383 35.2814 9.32833C31.5984 4.99715 21.9281 9.28587 13.6912 18.8824C5.49048 28.5214 1.82557 39.8377 5.52676 44.1476C9.20981 48.4788 18.8801 44.1901 27.117 34.5936Z"
        stroke="#5800FF" stroke-width="3.47421" stroke-linecap="round" stroke-linejoin="round" />
</svg>
    