<svg width="39" height="43" viewBox="0 0 39 43" fill="none" xmlns="http://www.w3.org/2000/svg">
<path d="M19.7105 24.8651C20.6699 24.8651 21.4476 24.0874 21.4476 23.128C21.4476 22.1686 20.6699 21.3909 19.7105 21.3909C18.7511 21.3909 17.9734 22.1686 17.9734 23.128C17.9734 24.0874 18.7511 24.8651 19.7105 24.8651Z" stroke="#5800FF" stroke-width="3.47421" stroke-linecap="round" stroke-linejoin="round"/>
<path d="M33.1979 36.5846C36.8991 32.8232 33.2342 22.9472 25.0335 14.535C16.7966 6.15982 7.12631 2.41694 3.44327 6.19688C-0.257923 9.95829 3.40698 19.8343 11.6077 28.2465C19.8446 36.6217 29.5149 40.3646 33.1979 36.5846Z" stroke="black" stroke-width="3.47421" stroke-linecap="round" stroke-linejoin="round"/>
<path d="M27.117 29.5936C35.3177 19.9546 38.9826 8.63828 35.2814 4.32833C31.5984 -0.00284635 21.9281 4.28587 13.6912 13.8824C5.49048 23.5214 1.82557 34.8377 5.52676 39.1476C9.20981 43.4788 18.8801 39.1901 27.117 29.5936Z" stroke="#5800FF" stroke-width="3.47421" stroke-linecap="round" stroke-linejoin="round"/>
</svg>
