<svg width="588" height="614" viewBox="0 0 588 614" fill="none" xmlns="http://www.w3.org/2000/svg">
    <g clip-path="url(#clip0_14_170)">
        <path
            d="M557.23 571.262C557.23 594.343 432.491 613.055 278.615 613.055C124.739 613.055 0 594.343 0 571.262C0 554.923 62.5266 540.768 153.652 533.901C191.229 531.061 233.686 529.47 278.615 529.47C297.084 529.47 315.131 529.74 332.585 530.252C460.631 534.027 557.23 550.95 557.23 571.262Z"
            fill="#3F3D56" />
        <path opacity="0.1"
            d="M242.665 579.801C301.733 579.801 349.617 573.966 349.617 566.769C349.617 559.571 301.733 553.737 242.665 553.737C183.596 553.737 135.712 559.571 135.712 566.769C135.712 573.966 183.596 579.801 242.665 579.801Z"
            fill="black" />
        <path
            d="M242.215 576.205C298.057 576.205 343.325 527.919 343.325 468.355C343.325 408.79 298.057 360.504 242.215 360.504C186.374 360.504 141.105 408.79 141.105 468.355C141.105 527.919 186.374 576.205 242.215 576.205Z"
            fill="#3F3D56" />
        <path d="M274.121 532.166H211.208V589.687H274.121V532.166Z" fill="#7C37FF" />
        <path
            d="M356.357 546.098L352.762 565.87L376.13 569.465L391.409 560.478L390.51 546.098H356.357Z"
            fill="#575A89" />
        <path
            d="M238.62 174.91C238.62 174.91 236.823 195.582 232.329 196.481C227.835 197.379 242.215 233.33 242.215 233.33H263.785L280.862 228.836L272.773 209.063C272.773 209.063 261.988 194.683 270.077 182.999C278.165 171.315 238.62 174.91 238.62 174.91Z"
            fill="#A0616A" />
        <path opacity="0.1"
            d="M238.62 174.91C238.62 174.91 236.823 195.582 232.329 196.481C227.835 197.379 242.215 233.33 242.215 233.33H263.785L280.862 228.836L272.773 209.063C272.773 209.063 261.988 194.683 270.077 182.999C278.165 171.315 238.62 174.91 238.62 174.91Z"
            fill="black" />
        <path
            d="M193.682 333.092C193.682 333.092 170.315 378.029 189.188 387.017C208.062 396.005 212.556 395.106 212.556 397.802C212.556 400.498 208.961 399.6 210.759 404.093C212.556 408.587 207.164 426.562 212.556 437.347C217.949 448.133 216.151 456.221 216.151 456.221C216.151 456.221 216.151 457.12 217.949 460.715C219.746 464.31 220.645 467.006 219.746 468.804C218.847 470.602 213.455 482.285 218.847 484.982C224.24 487.678 252.101 489.475 254.798 484.982C257.494 480.488 252.101 477.792 254.798 475.095C257.494 472.399 259.292 471.5 257.494 469.703C255.696 467.905 253.899 445.436 253.899 445.436C253.899 445.436 258.393 419.372 256.595 415.777C254.798 412.182 252.101 408.587 253.899 405.891C255.696 403.195 257.494 404.093 258.393 400.498C259.292 396.903 261.089 388.815 261.089 388.815L270.975 387.916L294.343 392.41C294.343 392.41 320.407 421.17 349.167 430.157C349.167 430.157 357.256 438.246 359.952 438.246C362.649 438.246 362.649 438.246 361.75 440.044C360.851 441.841 358.155 441.841 359.952 443.639C361.75 445.436 364.446 442.74 362.649 445.436C360.851 448.133 359.054 448.133 360.851 449.93C362.649 451.728 359.952 461.614 359.952 462.513C359.952 463.411 351.864 547.895 354.56 549.692C357.256 551.49 395.004 556.882 397.7 549.692C400.396 542.502 395.903 533.515 395.903 533.515C395.903 533.515 409.384 425.664 405.789 418.474C402.194 411.284 389.611 378.928 322.205 358.257C322.205 358.257 303.331 354.662 303.331 351.966C303.331 349.269 301.533 332.193 297.938 331.294C294.343 330.395 273.672 329.497 273.672 329.497L247.608 337.585L211.657 331.294L193.682 333.092Z"
            fill="#2F2E41" />
        <path
            d="M225.139 484.083L220.645 500.261C220.645 500.261 217.05 526.325 221.544 532.616C225.074 537.558 231.376 543.608 243.064 544.67C246.34 544.971 249.62 544.144 252.362 542.327C255.104 540.51 257.144 537.812 258.144 534.678C258.278 534.303 258.362 533.912 258.393 533.515C258.393 531.717 255.697 510.147 255.697 510.147L251.203 487.678L250.304 481.387L225.139 484.083Z"
            fill="#2F2E41" />
        <path
            d="M356.357 561.376C356.357 561.376 351.864 556.882 350.965 561.376C350.066 565.87 346.471 584.744 352.762 585.643C359.054 586.541 419.27 595.529 425.562 591.934C431.853 588.339 443.537 582.946 436.347 580.25C429.157 577.554 408.485 569.465 408.485 569.465C408.485 569.465 396.801 554.186 395.004 553.287C393.206 552.389 383.32 554.186 378.826 557.781C374.332 561.376 356.357 561.376 356.357 561.376Z"
            fill="#2F2E41" />
        <path
            d="M260.19 193.784C275.578 193.784 288.052 181.31 288.052 165.923C288.052 150.535 275.578 138.061 260.19 138.061C244.803 138.061 232.329 150.535 232.329 165.923C232.329 181.31 244.803 193.784 260.19 193.784Z"
            fill="#A0616A" />
        <path
            d="M257.494 228.836L246.709 217.152L234.754 193.784C234.754 193.784 226.038 191.088 224.24 195.582C222.442 200.076 190.087 214.456 190.087 214.456C190.087 214.456 198.176 289.951 194.581 297.141C190.986 304.332 184.695 333.092 190.087 335.788C195.48 338.484 220.645 335.788 228.734 339.383C236.823 342.978 260.19 342.978 266.482 338.484C272.773 333.991 274.57 330.395 280.862 333.092C286.218 335.387 298.739 256.912 302.343 233.527C302.647 231.562 302.395 229.552 301.615 227.724C300.836 225.896 299.56 224.323 297.932 223.182C289.868 217.525 275.344 207.778 272.773 209.063C269.178 210.861 257.494 228.836 257.494 228.836Z"
            fill="#575A89" />
        <path
            d="M296.141 225.241C298.251 225.768 300.15 226.929 301.581 228.567C303.013 230.205 303.909 232.242 304.149 234.404L311.419 299.838C311.419 299.838 293.444 338.484 284.457 312.42C275.469 286.356 296.141 225.241 296.141 225.241Z"
            fill="#575A89" />
        <path
            d="M294.343 306.129L314.116 300.736C314.116 300.736 317.711 325.902 321.306 325.902C324.901 325.902 308.723 340.282 300.634 338.484C292.546 336.687 280.862 330.395 279.963 325.902C279.064 321.408 288.052 302.534 288.052 302.534L294.343 306.129Z"
            fill="#575A89" />
        <path
            d="M239.158 177.942C241.052 173.765 240.723 168.892 242.29 164.581C243.128 162.272 244.489 160.189 246.266 158.493C248.044 156.798 250.189 155.536 252.534 154.807C254.879 154.078 257.361 153.901 259.787 154.289C262.212 154.678 264.514 155.622 266.514 157.048C268.529 158.485 270.549 160.503 273.008 160.229C275.656 159.934 278.019 156.979 280.454 158.062C283.152 159.262 282.423 164.099 285.158 165.216C286.597 165.804 288.297 164.898 289.127 163.584C289.853 162.203 290.249 160.672 290.283 159.112C290.66 155.278 291.001 151.221 289.339 147.747C288.64 146.569 288.03 145.34 287.516 144.071C287.225 142.886 287.108 141.664 287.169 140.445C287.154 135.939 286.825 131.24 284.558 127.346C282.042 123.026 277.391 120.263 272.539 119.058C267.686 117.852 262.603 118.037 257.621 118.459C249.385 119.156 240.797 120.651 234.308 125.77C233.427 126.415 232.667 127.212 232.068 128.125C231.498 129.209 231.096 130.373 230.874 131.577C229.471 137.29 227.368 142.807 224.612 148.004C223.286 150.207 222.202 152.547 221.38 154.983C220.692 157.459 220.739 160.28 222.179 162.408C223.352 164.14 225.226 165.063 226.699 166.479C228.159 167.883 228.842 170.582 230.458 171.644C231.87 172.572 233.56 171.917 235 172.9C236.848 174.163 236.981 176.931 239.158 177.942Z"
            fill="#2F2E41" />
        <path
            d="M261.988 242.317L264.684 236.925C264.684 236.925 304.229 248.609 312.318 259.394C312.318 259.394 332.091 246.811 342.876 248.609L353.661 250.406L320.407 280.065L278.165 276.47L261.988 242.317Z"
            fill="#F2F2F2" />
        <path
            d="M260.19 236.925L223.341 288.154L276.368 314.218C276.368 314.218 281.325 316.914 285.138 314.218L320.407 298.04L353.661 250.406L320.407 267.483C320.407 267.483 316.812 260.292 309.622 263.888L260.19 236.925Z"
            fill="#7C37FF" />
        <path
            d="M316.812 327.699L324.002 308.825C324.002 308.825 340.18 288.154 331.192 278.268C322.205 268.381 312.318 307.028 312.318 307.028L316.812 327.699Z"
            fill="#A0616A" />
        <path
            d="M233.855 324.687L249.544 311.968C249.544 311.968 273.909 302.203 271.094 289.142C268.28 276.081 240.338 304.551 240.338 304.551L233.855 324.687Z"
            fill="#A0616A" />
        <path opacity="0.1"
            d="M195.03 233.779H194.132C194.132 233.779 180.201 217.152 177.505 239.621C174.808 262.09 165.821 336.687 189.188 339.383C212.556 342.079 229.183 328.148 229.183 328.148C229.183 328.148 246.26 302.085 239.968 302.085C236.924 302.085 228.645 300.717 221.094 301.186C213.039 301.685 205.801 303.955 206.265 301.635C207.164 297.141 220.196 240.07 195.03 233.779Z"
            fill="black" />
        <path
            d="M193.682 216.253L190.087 214.456C190.087 214.456 175.707 217.152 173.011 239.621C170.315 262.09 161.327 336.687 184.695 339.383C208.062 342.079 239.519 335.788 239.519 335.788C239.519 335.788 245.81 301.635 239.519 301.635C233.228 301.635 200.872 306.129 201.771 301.635C202.67 297.141 218.847 222.544 193.682 216.253Z"
            fill="#575A89" />
        <path d="M303.78 317.364L313.691 302.174L319.958 327.25L303.78 334.44V317.364Z"
            fill="#575A89" />
        <path
            d="M100.187 100.763C113.589 100.763 124.454 89.8984 124.454 76.4964C124.454 63.0944 113.589 52.23 100.187 52.23C86.7853 52.23 75.9209 63.0944 75.9209 76.4964C75.9209 89.8984 86.7853 100.763 100.187 100.763Z"
            fill="#F2F2F2" />
        <path d="M128.948 257.147H71.4271V314.667H128.948V257.147Z" fill="#F2F2F2" />
        <path
            d="M334.338 0L348.897 25.2164L363.455 50.4329H334.338H305.221L319.779 25.2164L334.338 0Z"
            fill="#F2F2F2" />
        <path
            d="M588 151.197C587.652 161.955 585.032 170.579 580.14 177.067C575.248 183.555 569.435 186.8 562.703 186.8C557.22 186.8 552.413 183.625 548.285 177.275C544.155 170.924 542.09 161.156 542.091 147.97C542.091 145.055 542.16 142.279 542.299 139.642C542.437 137.005 542.611 134.506 542.819 132.146L546.463 97.8965H522.415C518.251 141.203 514.833 166.969 512.161 175.193C509.489 183.417 504.96 187.529 498.576 187.529C495.694 187.458 492.944 186.306 490.872 184.302C489.671 183.237 488.721 181.919 488.091 180.443C487.46 178.967 487.166 177.369 487.228 175.765C487.228 172.574 489.744 168.115 494.776 162.388C499.807 156.662 502.601 151.44 503.156 146.721L509.402 97.8964H499.305C496.458 97.9134 493.656 98.6093 491.132 99.9263C488.809 100.993 486.788 102.621 485.25 104.663L480.774 111.326H477.13C480.53 100.777 484.712 92.8479 489.675 87.5381C494.636 82.2288 500.344 79.5742 506.8 79.5742H586.335V97.8964H559.476C558.643 106.225 558.001 114.553 557.55 122.881C557.098 131.209 556.872 139.572 556.873 147.97C556.873 153.661 558.192 158.277 560.829 161.816C563.466 165.355 566.763 167.125 570.719 167.125C573.148 167.125 575.698 166.136 578.371 164.158C579.64 163.268 580.701 162.114 581.483 160.775C582.264 159.436 582.748 157.945 582.899 156.402C583.107 154.876 583.263 153.679 583.367 152.811C583.472 151.944 583.524 151.406 583.524 151.197L588 151.197Z"
            fill="#6C63FF" />
        <path opacity="0.1"
            d="M588 151.197C587.652 161.955 585.032 170.579 580.14 177.067C575.248 183.555 569.435 186.8 562.703 186.8C557.22 186.8 552.413 183.625 548.285 177.275C544.155 170.924 542.09 161.156 542.091 147.97C542.091 145.055 542.16 142.279 542.299 139.642C542.437 137.005 542.611 134.506 542.819 132.146L546.463 97.8965H522.415C518.251 141.203 514.833 166.969 512.161 175.193C509.489 183.417 504.96 187.529 498.576 187.529C495.694 187.458 492.944 186.306 490.872 184.302C489.671 183.237 488.721 181.919 488.091 180.443C487.46 178.967 487.166 177.369 487.228 175.765C487.228 172.574 489.744 168.115 494.776 162.388C499.807 156.662 502.601 151.44 503.156 146.721L509.402 97.8964H499.305C496.458 97.9134 493.656 98.6093 491.132 99.9263C488.809 100.993 486.788 102.621 485.25 104.663L480.774 111.326H477.13C480.53 100.777 484.712 92.8479 489.675 87.5381C494.636 82.2288 500.344 79.5742 506.8 79.5742H586.335V97.8964H559.476C558.643 106.225 558.001 114.553 557.55 122.881C557.098 131.209 556.872 139.572 556.873 147.97C556.873 153.661 558.192 158.277 560.829 161.816C563.466 165.355 566.763 167.125 570.719 167.125C573.148 167.125 575.698 166.136 578.371 164.158C579.64 163.268 580.701 162.114 581.483 160.775C582.264 159.436 582.748 157.945 582.899 156.402C583.107 154.876 583.263 153.679 583.367 152.811C583.472 151.944 583.524 151.406 583.524 151.197L588 151.197Z"
            fill="black" />
        <path
            d="M588 147.944C587.652 158.703 585.032 167.326 580.14 173.814C575.248 180.302 569.435 183.547 562.703 183.548C557.22 183.548 552.413 180.372 548.285 174.022C544.155 167.672 542.09 157.904 542.091 144.717C542.091 141.802 542.16 139.026 542.299 136.389C542.437 133.752 542.611 131.254 542.819 128.894L546.463 94.6437H522.415C518.251 137.95 514.833 163.716 512.161 171.94C509.489 180.164 504.96 184.276 498.576 184.276C495.694 184.206 492.944 183.054 490.872 181.049C489.671 179.985 488.721 178.667 488.091 177.19C487.46 175.714 487.166 174.116 487.228 172.513C487.228 169.321 489.744 164.862 494.776 159.135C499.807 153.41 502.601 148.187 503.156 143.468L509.402 94.6437H499.305C496.458 94.6607 493.656 95.3566 491.132 96.6736C488.809 97.7405 486.788 99.3682 485.25 101.41L480.774 108.073H477.13C480.53 97.5243 484.712 89.5952 489.675 84.2854C494.636 78.9761 500.344 76.3215 506.8 76.3215H586.335V94.6437H559.476C558.643 102.972 558.001 111.3 557.55 119.628C557.098 127.957 556.872 136.32 556.873 144.717C556.873 150.409 558.192 155.024 560.829 158.563C563.466 162.103 566.763 163.872 570.719 163.872C573.148 163.872 575.698 162.883 578.371 160.905C579.64 160.015 580.701 158.861 581.483 157.522C582.264 156.184 582.748 154.692 582.899 153.15C583.107 151.624 583.263 150.427 583.367 149.558C583.472 148.691 583.524 148.153 583.524 147.944H588Z"
            fill="#7C37FF" />
    </g>
    <defs>
        <clipPath id="clip0_14_170">
            <rect width="588" height="613.055" fill="white" />
        </clipPath>
    </defs>
</svg>
    