<svg width="620" height="546" viewBox="0 0 620 546" fill="none" xmlns="http://www.w3.org/2000/svg">
    <g clip-path="url(#clip0_15_360)">
        <path
            d="M595.151 542.838H435.885V537.95C435.885 533.707 437.571 529.637 440.571 526.637C443.572 523.636 447.642 521.95 451.885 521.95H579.151C583.394 521.95 587.464 523.636 590.464 526.637C593.465 529.637 595.151 533.707 595.151 537.95V542.838Z"
            fill="#E6E6E6" />
        <path
            d="M511.791 522.925L516.634 520.975C465.957 395.186 470.839 236.493 513.678 100.362C518.766 84.5892 519.133 67.673 514.733 51.6945C510.334 35.7159 501.359 21.3721 488.913 10.4276C464.049 -11.7613 429.769 -17.1668 399.446 -3.68066C369.516 9.63334 365.39 32.8243 365.39 55.9025H370.612C370.612 31.2677 375.877 12.519 401.569 1.09051C429.988 -11.5484 462.123 -6.47895 485.436 14.3242C497.126 24.6034 505.556 38.0756 509.688 53.0833C513.821 68.091 513.476 83.9795 508.697 98.7938C465.364 236.496 460.768 396.28 511.791 522.925Z"
            fill="#E6E6E6" />
        <path
            d="M369.307 132.924C379.4 132.924 387.583 124.742 387.583 114.648C387.583 104.554 379.4 96.3716 369.307 96.3716C359.213 96.3716 351.03 104.554 351.03 114.648C351.03 124.742 359.213 132.924 369.307 132.924Z"
            fill="#E6E6E6" />
        <path
            d="M341.159 146.509V111.88H346.544V146.509C348.089 147.134 349.368 148.276 350.162 149.741C350.957 151.205 351.217 152.9 350.899 154.536C350.581 156.171 349.704 157.645 348.418 158.705C347.132 159.765 345.518 160.344 343.852 160.344C342.186 160.344 340.571 159.765 339.286 158.705C338 157.645 337.123 156.171 336.804 154.536C336.486 152.9 336.747 151.205 337.541 149.741C338.336 148.276 339.615 147.134 341.159 146.509Z"
            fill="#E6E6E6" />
        <path
            d="M315.13 85.275C315.139 77.3145 318.306 69.6827 323.935 64.0538C329.563 58.4249 337.195 55.2586 345.156 55.2495H394.763C402.726 55.2495 410.363 58.4129 415.994 64.0438C421.625 69.6747 424.789 77.3118 424.789 85.275C424.789 93.2383 421.625 100.875 415.994 106.506C410.363 112.137 402.726 115.301 394.763 115.301H345.156C337.195 115.291 329.563 112.125 323.935 106.496C318.306 100.867 315.139 93.2355 315.13 85.275Z"
            fill="#7C37FF" />
        <path
            d="M245.236 271.212C250.216 207.489 275.682 177.128 259.376 158.089C243.757 139.851 199.759 143.619 171.504 161.119C95.2914 208.321 67.3701 396.451 165.443 488.368C258.638 575.711 435.26 547.737 474.512 476.247C483.67 459.567 490.946 430.325 477.542 412.616C444.263 368.648 323.271 448.285 269.476 398.475C237.596 368.956 242.502 306.183 245.236 271.212Z"
            fill="#3F3D56" />
        <path
            d="M303.493 239.554C301.642 240.406 300.196 241.946 299.463 243.847C298.731 245.748 298.769 247.86 299.569 249.734C299.738 250.112 299.938 250.476 300.166 250.821L283.808 272.663L291.971 284.863L311.145 252.52C312.503 251.46 313.473 249.981 313.902 248.313C314.331 246.644 314.196 244.881 313.518 243.297C313.123 242.4 312.556 241.589 311.848 240.911C311.14 240.233 310.305 239.701 309.392 239.345C308.478 238.99 307.503 238.818 306.523 238.839C305.543 238.86 304.577 239.074 303.68 239.469C303.617 239.497 303.555 239.525 303.493 239.554Z"
            fill="#FFB6B6" />
        <path
            d="M303.48 277.213C304.551 278.162 301.581 279.334 298.44 277.485C297.541 276.95 297.157 276.728 297.056 276.869C296.804 277.223 298.278 279.829 297.884 285.616C297.642 289.07 291.905 295.565 285.39 301.898C276.583 310.463 266.341 318.725 266.341 318.725L262.746 315.846L225.041 285.616L218.678 276.809C219.261 273.33 220.136 269.908 221.294 266.577C222.889 261.966 224.786 257.465 226.97 253.103C228.142 250.73 229.344 248.467 230.495 246.387L250.696 268.648L267.624 287.293C267.624 287.293 272.553 279.354 276.371 277.192C276.858 276.881 277.412 276.691 277.987 276.637C281.845 276.455 282.077 274.354 277.603 269.779C273.129 265.203 278.775 269.476 282.754 268.244C286.734 267.011 282.754 268.244 283.593 265.163C284.431 262.082 295.592 255.901 295.592 255.901L296.056 256.315L304.49 263.759L306.904 265.89C306.904 265.89 304.268 273.122 303.541 274.647C302.813 276.172 302.419 276.253 303.48 277.213Z"
            fill="#7C37FF" />
        <path d="M525.804 417.521L526.215 406.38L483.439 399.493L482.832 415.935L525.804 417.521Z"
            fill="#FFB6B6" />
        <path
            d="M518.039 420.875L517.633 403.037L525.259 403.319L537.57 386.828C538.178 386.014 539.031 385.415 540.003 385.119C540.975 384.823 542.017 384.846 542.975 385.184C543.934 385.522 544.759 386.158 545.331 386.998C545.903 387.838 546.191 388.84 546.153 389.855L545.372 411.045L537.694 414.419L545.184 416.124L544.889 424.113L518.039 420.875Z"
            fill="#2F2E41" />
        <path
            d="M285.055 421.858L420.543 425.294C420.543 425.294 479.051 428.673 492.779 419.743L507.255 417.916L508.039 396.652C508.039 396.652 499.187 396.717 494.098 394.346C489.008 391.974 492.545 389.073 487.693 391.926C482.84 394.779 483.353 395.122 479.601 393.811C475.85 392.5 303.806 366.276 303.806 366.276L285.055 421.858Z"
            fill="#2F2E41" />
        <path d="M463.592 412.631L471.471 404.744L444.796 370.601L433.168 382.243L463.592 412.631Z"
            fill="#FFB6B6" />
        <path
            d="M455.619 405.769L467.453 392.416L472.852 397.809L493.093 394.093C494.093 393.91 495.125 394.05 496.039 394.495C496.953 394.939 497.701 395.664 498.174 396.564C498.647 397.464 498.819 398.491 498.667 399.496C498.515 400.501 498.045 401.431 497.326 402.15L482.341 417.152L474.418 414.404L478.75 420.748L473.1 426.405L455.619 405.769Z"
            fill="#2F2E41" />
        <path
            d="M231.601 347.656L232.948 378.967C234.533 415.826 275.126 438.135 306.602 418.89C307.182 418.535 307.764 418.168 308.348 417.788C308.348 417.788 320.281 414.583 319.919 409.508C319.557 404.433 322.472 401.963 325.052 403.347C327.631 404.731 361.409 356.795 361.409 356.795C361.409 356.795 431.587 391.801 447.069 400.042C447.069 400.042 461.625 377.283 460.569 377.521C459.514 377.76 373.75 317.733 373.75 317.733C373.75 317.733 359.778 303.593 342.447 312.929C342.086 314.3 342.394 314.348 342.394 314.348L285.142 361L277.052 345.637L231.601 347.656Z"
            fill="#2F2E41" />
        <path
            d="M285.582 308.513C285.474 309.96 285.268 311.397 284.966 312.816C284.554 314.87 283.889 316.865 282.987 318.755C282.987 318.755 282.986 320.866 278.946 327.936C274.906 335.006 279.956 331.976 282.987 337.228C286.017 342.47 282.986 340.056 279.623 343.43C278.655 344.412 277.967 345.635 277.631 346.972C277.296 348.31 277.324 349.713 277.714 351.035C277.714 351.035 234.323 351.066 226.243 348.036C218.163 345.006 216.325 327.936 223.567 326.249C230.798 324.563 221.375 322.886 217.123 318.997C212.87 315.109 221.375 308.746 221.375 308.746C221.375 308.746 217.87 302.696 218.163 282.384C218.204 280.516 218.376 278.653 218.678 276.809C219.261 273.331 220.136 269.908 221.294 266.577C222.889 261.966 224.786 257.466 226.97 253.103C228.142 250.73 229.344 248.467 230.495 246.387C230.677 246.063 230.849 245.75 231.031 245.437C233.222 241.559 235.222 238.387 236.545 236.357C237.565 234.781 238.182 233.893 238.182 233.893L245.535 221.106L270.078 232.61L268.684 251.427L272.916 265.617L274.866 272.152L276.371 277.192L278.694 285C278.694 285 278.057 285.03 278.815 286.07C282.304 290.709 284.565 296.153 285.39 301.898C285.681 304.09 285.745 306.307 285.582 308.513Z"
            fill="#7C37FF" />
        <path
            d="M356.461 310.541L356.001 310.392L297.257 291.476L318.904 220.459C319.335 219.045 320.081 217.747 321.087 216.663C322.092 215.579 323.331 214.738 324.709 214.202C326.087 213.667 327.568 213.451 329.042 213.572C330.515 213.692 331.942 214.145 333.215 214.897L370.755 237.076C373.727 238.83 375.987 241.572 377.142 244.824C378.297 248.075 378.273 251.629 377.074 254.864L356.461 310.541Z"
            fill="#2F2E41" />
        <path
            d="M356.7 315.056L297.483 295.987L319.13 224.97C319.561 223.556 320.308 222.258 321.313 221.174C322.319 220.091 323.557 219.249 324.935 218.714C326.313 218.178 327.795 217.962 329.268 218.083C330.742 218.203 332.169 218.656 333.442 219.408L372.774 239.046C378.683 242.536 378.545 251.569 375.801 258.981L356.7 315.056Z"
            fill="#7C37FF" />
        <path
            d="M350.771 320.196C349.408 320.965 347.899 321.443 346.341 321.598C344.783 321.753 343.21 321.582 341.721 321.096L303.871 308.907C300.967 307.958 298.549 305.912 297.134 303.204C295.719 300.497 295.418 297.343 296.297 294.417L315.273 232.162C315.652 230.919 316.276 229.763 317.107 228.764C317.939 227.764 318.962 226.941 320.116 226.342C321.27 225.743 322.532 225.38 323.828 225.275C325.124 225.17 326.428 225.325 327.663 225.731L366.887 238.61C368.756 239.224 370.483 240.205 371.967 241.498C373.45 242.79 374.659 244.366 375.522 246.133C376.386 247.901 376.887 249.823 376.995 251.787C377.103 253.751 376.817 255.717 376.153 257.569L355.863 314.134C354.952 316.702 353.144 318.855 350.771 320.196Z"
            fill="#3F3D56" />
        <path
            d="M268.691 221.324C283.663 221.324 295.801 209.186 295.801 194.214C295.801 179.241 283.663 167.104 268.691 167.104C253.718 167.104 241.581 179.241 241.581 194.214C241.581 209.186 253.718 221.324 268.691 221.324Z"
            fill="#FFB6B6" />
        <path
            d="M177.017 221.732C179.505 226.555 183.584 230.368 188.563 232.526C190.55 233.431 192.639 234.092 194.785 234.495C195.392 232.09 196.363 229.791 197.664 227.679C197.231 230.059 197.231 232.498 197.664 234.879C200.934 235.146 204.223 234.738 207.327 233.679C210.376 232.642 213.142 230.909 215.404 228.617C217.667 226.325 219.364 223.537 220.361 220.475C222.521 213.289 220.195 205.614 220.011 198.113C219.823 190.611 223.385 181.639 230.832 180.711C236.503 180.003 235.802 180.553 239.877 184.559C234.177 190.891 248.073 218.936 255.529 217.697C259.745 216.996 262.847 213.649 263.681 213.765C267.951 224.221 255.107 239.051 265.294 243.919L264.538 242.919C259.206 234.111 274.983 219.233 269.651 210.425C268.165 207.961 266.619 205.072 267.539 202.346C268.412 199.754 272.832 198.934 273.765 201.293C272.249 195.887 276.481 189.541 282.102 188.989C287.096 188.496 286.808 189.92 291.57 191.218C292.178 189.167 293.055 187.205 294.177 185.384C293.798 187.462 293.751 189.587 294.039 191.68C295.756 191.885 297.493 191.517 298.98 190.634C303.377 187.998 303.508 181.194 300.487 177.053C297.461 172.911 292.393 170.866 287.503 169.318C287.458 158.977 259.631 154.026 254.513 163.641C253.987 155.856 245.063 150.612 237.375 151.934C229.688 153.257 223.623 159.421 219.925 166.291C216.229 173.157 214.393 180.844 211.687 188.156C208.981 195.469 205.112 202.76 198.631 207.099C192.152 211.432 182.522 211.826 177.112 206.209C175.878 208.608 175.226 211.263 175.21 213.96C175.193 216.657 175.813 219.319 177.017 221.732Z"
            fill="#2F2E41" />
        <path
            d="M204.834 345.705C205.395 345.256 206.004 344.871 206.649 344.556C217.026 339.391 249.295 325.986 274.526 326.536C323.074 327.594 384.858 381.173 370.479 417.153C359.538 444.531 305.143 460.107 265.436 447.649C209.81 430.196 187.854 359.244 204.834 345.705Z"
            fill="#3F3D56" />
        <path
            d="M3.29169 542.941C-12.5718 539.948 -26.6139 468.48 4.59714 433.282C15.2905 421.223 28.629 415.974 46.3717 411.09C148.493 382.975 226.383 409.769 236.85 416.311C247.294 422.839 265.602 521.187 242.19 535.108C229.017 542.941 202.908 546.857 189.972 537.719C170.937 524.273 202.887 489.395 188.666 465.919C172.529 439.278 87.5517 430.304 44.948 456.78C-0.505756 485.028 93.2499 559.912 3.29169 542.941Z"
            fill="#F2F2F2" />
        <path
            d="M109.353 421.43H48.7487C33.788 407.092 23.0911 393.274 31.6552 381.804C31.6552 378.507 32.9649 375.345 35.2963 373.014C37.6277 370.682 40.7897 369.373 44.0868 369.373H114.015C117.312 369.373 120.474 370.682 122.805 373.014C125.137 375.345 126.446 378.507 126.446 381.804C129.707 394.874 123.882 408.084 109.353 421.43Z"
            fill="#CCCCCC" />
        <path
            d="M98.4689 353.722C97.8939 353.749 97.3246 353.598 96.8383 353.29C96.3519 352.982 95.972 352.532 95.7499 352.001C95.5279 351.47 95.4744 350.883 95.5968 350.321C95.7192 349.758 96.0116 349.247 96.4343 348.856L96.6266 348.092C96.6013 348.03 96.5759 347.969 96.5502 347.908C95.9709 346.54 95.0003 345.373 93.7601 344.555C92.5199 343.736 91.0655 343.303 89.5797 343.308C88.0938 343.314 86.6427 343.758 85.4087 344.586C84.1746 345.413 83.2126 346.587 82.6435 347.96C80.369 353.438 77.4731 358.925 76.7601 364.717C76.446 367.278 76.5785 369.873 77.1516 372.388C71.8094 360.735 69.0353 348.069 69.0175 335.249C69.0164 332.032 69.1951 328.818 69.5528 325.621C69.8485 323 70.2587 320.398 70.7834 317.815C73.6467 303.797 79.7944 290.658 88.7215 279.477C93.0422 277.12 96.5364 273.494 98.7333 269.09C99.5292 267.507 100.092 265.816 100.403 264.072C99.9159 264.136 98.5655 256.713 98.9331 256.257C98.2539 255.227 97.0381 254.714 96.2963 253.709C92.6069 248.706 87.5238 249.58 84.8702 256.377C79.2015 259.238 79.1466 263.983 82.6249 268.547C84.8378 271.45 85.1419 275.378 87.0835 278.486C86.8837 278.742 86.676 278.99 86.4762 279.245C82.8246 283.941 79.642 288.983 76.974 294.299C77.6228 288.343 76.8485 282.319 74.7146 276.721C72.5519 271.503 68.4982 267.109 64.9286 262.599C60.6407 257.182 51.8482 259.546 51.0928 266.413C51.0855 266.48 51.0783 266.546 51.0714 266.613C51.6016 266.912 52.1206 267.229 52.6285 267.565C53.2664 267.992 53.7608 268.601 54.0467 269.313C54.3327 270.025 54.3969 270.806 54.2309 271.555C54.0649 272.305 53.6765 272.986 53.1166 273.511C52.5567 274.035 51.8514 274.378 51.0931 274.495L51.0155 274.507C51.2044 276.418 51.5383 278.312 52.0143 280.172C47.4348 297.882 57.3216 304.333 71.4386 304.623C71.7502 304.782 72.0539 304.942 72.3655 305.094C69.6849 312.691 68.0035 320.603 67.3636 328.633C67.0013 333.371 67.0226 338.13 67.4275 342.864L67.4035 342.696C66.3807 337.432 63.5725 332.682 59.4532 329.249C53.3349 324.223 44.691 322.372 38.0906 318.332C37.3891 317.882 36.5734 317.641 35.7398 317.639C34.9062 317.637 34.0895 317.874 33.3858 318.321C32.6821 318.768 32.121 319.406 31.7685 320.162C31.416 320.917 31.2868 321.758 31.3963 322.584C31.4052 322.643 31.4142 322.702 31.4233 322.761C32.4073 323.161 33.3653 323.623 34.2918 324.143C34.822 324.442 35.3411 324.759 35.8489 325.095C36.4868 325.522 36.9812 326.131 37.2671 326.843C37.553 327.555 37.6172 328.336 37.4513 329.085C37.2853 329.834 36.8969 330.516 36.337 331.041C35.7771 331.565 35.0719 331.908 34.3136 332.025L34.2358 332.037C34.1799 332.045 34.132 332.053 34.0761 332.061C35.7573 336.075 38.1169 339.77 41.0516 342.984C43.915 358.444 56.2136 359.911 69.3691 355.409H69.3771C70.8205 361.681 72.9119 367.787 75.6175 373.627H97.9103C97.9903 373.379 98.0622 373.123 98.1341 372.875C96.0706 373.005 93.9991 372.882 91.9656 372.508C93.6196 370.478 95.2736 368.433 96.9276 366.403C96.9644 366.365 96.9991 366.325 97.0314 366.283C97.8704 365.245 98.7174 364.214 99.5564 363.175L99.5568 363.174C99.6015 359.99 99.2354 356.813 98.4689 353.722Z"
            fill="#CCCCCC" />
        <path
            d="M174.505 418.183C174.875 419.259 175.577 420.191 176.509 420.844C177.441 421.497 178.556 421.838 179.694 421.818L201.927 421.245C203.074 421.223 204.182 420.83 205.087 420.126C205.991 419.421 206.644 418.443 206.947 417.337L210.093 383.695C211.209 384.2 212.424 384.45 213.649 384.425C215.799 384.371 217.839 383.466 219.321 381.908C220.803 380.349 221.605 378.266 221.551 376.116C221.497 373.967 220.592 371.926 219.033 370.445C217.475 368.963 215.392 368.16 213.242 368.214C212.753 368.213 212.264 368.264 211.785 368.366C211.265 367.802 210.632 367.354 209.927 367.05C209.223 366.746 208.462 366.593 207.695 366.601L173.496 367.484C173.212 367.495 172.93 367.53 172.652 367.589C171.902 367.729 171.191 368.027 170.566 368.465C169.941 368.903 169.417 369.47 169.03 370.127C168.642 370.784 168.4 371.516 168.32 372.275C168.239 373.034 168.322 373.801 168.562 374.525L174.505 418.183ZM210.738 381.41L212.977 373.393C213.231 372.467 213.237 371.49 212.994 370.561C213.102 370.561 213.198 370.51 213.307 370.509C214.842 370.478 216.326 371.056 217.435 372.118C218.545 373.179 219.187 374.637 219.223 376.172C219.259 377.707 218.685 379.193 217.627 380.305C216.569 381.417 215.113 382.065 213.578 382.105C212.586 382.136 211.604 381.896 210.738 381.41Z"
            fill="#CCCCCC" />
        <path
            d="M172.652 367.589C173.381 371.755 181.572 374.684 191.422 374.175C200.48 373.757 207.886 370.577 209.243 366.807C208.741 366.659 208.218 366.589 207.695 366.601L173.496 367.484C173.212 367.495 172.93 367.53 172.652 367.589Z"
            fill="white" />
        <path
            d="M-83.8093 544.518L664.941 544.825C665.256 544.825 665.559 544.7 665.783 544.477C666.006 544.253 666.131 543.95 666.131 543.635C666.131 543.319 666.006 543.016 665.783 542.793C665.559 542.569 665.256 542.444 664.941 542.444L-83.8093 542.137C-84.1251 542.137 -84.428 542.262 -84.6513 542.485C-84.8746 542.709 -85 543.012 -85 543.327C-85 543.643 -84.8746 543.946 -84.6513 544.169C-84.428 544.393 -84.1251 544.518 -83.8093 544.518Z"
            fill="#CACACA" />
        <path
            d="M336.141 278.414C334.105 278.488 332.178 279.354 330.771 280.827C329.363 282.3 328.586 284.265 328.605 286.302C328.615 286.716 328.66 287.129 328.738 287.535L305.24 301.409L308.084 315.809L338.219 293.324C339.881 292.869 341.344 291.876 342.382 290.501C343.42 289.126 343.974 287.446 343.956 285.723C343.937 284.743 343.725 283.776 343.332 282.878C342.939 281.98 342.373 281.168 341.666 280.489C340.96 279.809 340.126 279.276 339.213 278.919C338.301 278.561 337.326 278.387 336.346 278.407C336.278 278.408 336.209 278.41 336.141 278.414Z"
            fill="#FFB6B6" />
        <path
            d="M316.892 311.486C316.263 310.644 315.993 310.292 315.85 310.389C315.482 310.611 315.836 313.586 313.248 318.771C309.605 326.056 271.404 337.214 271.404 337.214L266.701 328.603L246.013 290.763L238.882 260.434C238.633 259.376 238.512 258.292 238.522 257.206C244.879 252.732 251.631 248.846 258.693 245.595C261.515 247.196 263.666 249.759 264.753 252.816L278.994 292.745L284.677 308.687C284.677 308.687 294.701 301.519 298.337 302.835C301.967 304.159 302.999 302.302 300.626 296.36C298.253 290.417 301.815 296.534 305.959 296.923C310.113 297.318 305.959 296.923 307.921 294.401C309.883 291.88 322.566 290.461 322.566 290.461L322.835 291.023L327.75 301.134L329.157 304.039C329.157 304.039 323.947 309.692 322.69 310.819C321.427 311.954 321.036 311.875 321.655 313.168C322.265 314.455 319.075 314.397 316.892 311.486Z"
            fill="#7C37FF" />
    </g>
    <defs>
        <clipPath id="clip0_15_360">
            <rect width="751.131" height="556.415" fill="white" transform="translate(-85 -11)" />
        </clipPath>
    </defs>
</svg>
    